<svg width="60" height="61" viewBox="0 0 60 61" fill="none" xmlns="http://www.w3.org/2000/svg">
<path d="M0 8C0 3.89844 3.28125 0.5 7.5 0.5H52.5C56.6016 0.5 60 3.89844 60 8V41.75C60 45.9688 56.6016 49.25 52.5 49.25H36.2109L21.6797 60.1484C21.0938 60.6172 20.3906 60.6172 19.6875 60.3828C19.1016 60.0312 18.75 59.4453 18.75 58.625V49.25H7.5C3.28125 49.25 0 45.9688 0 41.75V8ZM18.75 13.625C16.6406 13.625 15 15.3828 15 17.375V23C15 25.1094 16.6406 26.75 18.75 26.75H22.5V27.6875C22.5 28.9766 21.4453 30.1484 20.0391 30.3828L19.2188 30.6172C17.5781 30.8516 16.6406 32.2578 16.875 33.7812C17.1094 35.3047 18.5156 36.3594 20.0391 36.125L20.9766 36.0078C25.0781 35.3047 28.125 31.7891 28.125 27.6875V23V20.1875V17.375C28.125 15.3828 26.3672 13.625 24.375 13.625H18.75ZM45 23V20.1875V17.375C45 15.3828 43.2422 13.625 41.25 13.625H35.625C33.5156 13.625 31.875 15.3828 31.875 17.375V23C31.875 25.1094 33.5156 26.75 35.625 26.75H39.375V27.6875C39.375 28.9766 38.3203 30.1484 36.9141 30.3828L36.0938 30.6172C34.4531 30.8516 33.5156 32.2578 33.75 33.7812C33.9844 35.3047 35.3906 36.3594 36.9141 36.125L37.8516 36.0078C41.9531 35.3047 45 31.7891 45 27.6875V23Z" fill="#F7921E"/>
</svg>
