<svg width="204" height="45" viewBox="0 0 204 45" fill="none" xmlns="http://www.w3.org/2000/svg">
<mask id="mask0_225_1198" style="mask-type:luminance" maskUnits="userSpaceOnUse" x="0" y="0" width="204" height="45">
<path d="M203.628 0.854004H0V44.7312H203.628V0.854004Z" fill="white"/>
</mask>
<g mask="url(#mask0_225_1198)">
<path d="M5.22053 35.4134C4.331 35.4153 3.45689 35.1837 2.68751 34.7422C1.91812 34.3007 1.28104 33.6652 0.841341 32.9005C0.408371 32.1412 0.192441 31.2797 0.216682 30.4084C0.240923 29.537 0.504421 28.6886 0.978951 27.9539L9.99701 13.9496C10.46 13.1989 11.1152 12.5825 11.8963 12.1624C12.6775 11.7424 13.5569 11.5337 14.4457 11.5575C15.3345 11.5813 16.2013 11.8366 16.9583 12.2978C17.7154 12.7589 18.3359 13.4095 18.7572 14.1838C19.1695 14.9539 19.3621 15.8204 19.3143 16.6905C19.2665 17.5605 18.9801 18.4013 18.4859 19.1227L9.47347 33.1272C9.01648 33.8315 8.38709 34.4103 7.64363 34.8099C6.90017 35.2096 6.06672 35.4171 5.22053 35.4134Z" fill="#063A41"/>
<path d="M20.688 35.4133C19.8 35.416 18.9273 35.1852 18.1591 34.7447C17.391 34.3041 16.7551 33.6696 16.3165 32.9061C15.8845 32.1488 15.669 31.2896 15.6932 30.4205C15.7175 29.5514 15.9805 28.7052 16.454 27.9726L25.455 14.0005C25.9117 13.2391 26.565 12.6115 27.3479 12.1822C28.1308 11.7529 29.0151 11.5373 29.91 11.5575C30.805 11.5776 31.6784 11.8329 32.4407 12.2971C33.203 12.7613 33.8266 13.4177 34.2477 14.1989C34.658 14.9761 34.8446 15.8498 34.7873 16.7247C34.7301 17.5996 34.431 18.4421 33.9229 19.1605L24.9239 33.1328C24.4683 33.8341 23.8414 34.4106 23.1011 34.8091C22.3608 35.2077 21.5309 35.4155 20.688 35.4133Z" fill="#063A41"/>
<path d="M35.8108 35.5305C38.375 35.5305 40.4536 33.518 40.4536 31.0355C40.4536 28.553 38.375 26.5405 35.8108 26.5405C33.2466 26.5405 31.168 28.553 31.168 31.0355C31.168 33.518 33.2466 35.5305 35.8108 35.5305Z" fill="#063A41"/>
<path fill-rule="evenodd" clip-rule="evenodd" d="M203.442 12.6972H196.657L191.902 24.8217L187.171 12.6972H180.386L188.634 31.8558L183.504 44.5224H190.239L203.442 12.6972ZM162.18 23.3535C162.18 26.4143 164.886 28.4285 167.543 28.4285C170.155 28.4285 172.721 26.5542 172.721 23.3519C172.721 20.1496 170.155 18.2732 167.543 18.2732C164.885 18.2732 162.18 20.2892 162.18 23.3519V23.3535ZM172.721 34.0514V31.6272C171.345 33.6867 168.136 34.4651 166.489 34.4651C161.036 34.4651 155.581 30.2139 155.581 23.3516C155.581 16.4911 161.034 12.24 166.489 12.24C167.862 12.24 171.072 12.6935 172.721 15.0741V12.7047H179.045V34.0551L172.721 34.0532V34.0514ZM153.781 34.0514H147.457V31.3984C146.4 33.3634 143.838 34.5084 141.179 34.5084C135.678 34.5084 130.819 30.1646 130.819 23.4383C130.819 16.5854 135.678 12.2358 141.179 12.2358C143.834 12.2358 146.404 13.3317 147.457 15.2988V1.06592H153.781V34.0514ZM147.319 23.3046C147.319 20.1039 144.983 18.228 142.371 18.228C139.665 18.228 137.419 20.2402 137.419 23.3046C137.419 26.4675 139.665 28.4703 142.369 28.4703C145.03 28.4741 147.319 26.3693 147.319 23.3046ZM115.183 22.7529C115.183 19.5068 116.879 18.4092 119.124 18.4092C121.278 18.4092 122.837 19.8263 122.837 22.6604V34.048H129.206V21.2902C129.206 15.21 126.18 12.2362 121.367 12.2362C118.847 12.2362 116.327 13.6533 115.18 15.8033V12.6972H108.814V34.048H115.183L115.183 22.7529ZM95.8794 34.4142C89.8303 34.4142 84.7844 30.0251 84.7844 23.3025C84.7844 16.5762 89.8247 12.2305 95.8794 12.2305C101.934 12.2305 107.018 16.5759 107.018 23.3025C107.018 30.0292 101.928 34.416 95.8794 34.416V34.4142ZM95.8794 28.198C98.5351 28.198 100.738 26.2746 100.738 23.3044C100.738 20.4231 98.5371 18.4562 95.8794 18.4562C95.2395 18.4463 94.6042 18.5654 94.0123 18.806C93.4204 19.0467 92.8842 19.4041 92.4365 19.8563C91.9861 20.3109 91.6327 20.8504 91.3974 21.4428C91.1621 22.0351 91.0496 22.6682 91.0666 23.3044C91.0684 26.2783 93.268 28.1977 95.8794 28.1977V28.198ZM73.3646 18.4108C75.2427 18.4108 76.8935 19.875 76.8935 22.662V34.0514H83.2177V21.9251C83.2177 15.4784 80.0479 12.2323 74.9676 12.2323C73.4582 12.2323 70.6152 12.6858 68.5517 16.0265C67.3595 13.5571 65.0686 12.276 61.683 12.276C60.5076 12.2701 59.3553 12.599 58.3639 13.2235C57.3726 13.848 56.584 14.7417 56.0926 15.7976V12.6991H49.7188V34.0495H56.0869V22.7527C56.0869 19.5066 57.8752 18.4089 59.7992 18.4089C61.6334 18.4089 63.2804 19.8261 63.3281 22.5241V34.0495H69.6981V22.7527C69.6981 19.6483 71.3486 18.4127 73.3646 18.4127V18.4108Z" fill="#063A41"/>
</g>
</svg>
