<svg width="202" height="63" viewBox="0 0 202 63" fill="none" xmlns="http://www.w3.org/2000/svg">
<path d="M57.2115 0.953613H5.88158C4.37511 0.958829 2.93185 1.55294 1.86661 2.60636C0.801368 3.65978 0.200587 5.08702 0.195312 6.57677V57.337C0.200587 58.8268 0.801368 60.254 1.86661 61.3074C2.93185 62.3608 4.37511 62.955 5.88158 62.9602H57.2115C58.7179 62.955 60.1612 62.3608 61.2264 61.3074C62.2917 60.254 62.8925 58.8268 62.8977 57.337V6.57677C62.8925 5.08702 62.2917 3.65978 61.2264 2.60636C60.1612 1.55294 58.7179 0.958829 57.2115 0.953613Z" fill="#063A41"/>
<path d="M102.205 49.0797H108.199V23.1929H102.205V49.0797ZM124.13 33.7807C121.057 32.8182 118.239 32.0076 118.239 30.1332V30.0319C118.239 28.5121 119.571 27.4482 121.928 27.4482C123.055 27.4482 124.335 27.7017 125.667 28.1574H125.719C125.834 28.2172 125.954 28.2681 126.077 28.3094C127.051 28.6134 129.561 29.0186 131.764 25.6751C128.997 23.8514 125.411 22.7369 122.133 22.7369C116.908 22.7369 112.81 25.7258 112.81 30.6398V30.7411C112.81 35.7057 117.113 37.276 121.006 38.3399C124.08 39.2518 126.846 39.961 126.846 41.9874V42.0887C126.846 43.8111 125.36 44.875 122.799 44.875C121.108 44.875 119.213 44.4191 117.317 43.5579C116.754 43.3553 113.987 42.3927 111.579 45.7363C114.858 48.2693 118.905 49.5863 122.644 49.5863C128.074 49.5863 132.378 46.9015 132.378 41.4303V41.3289C132.275 36.6682 127.972 34.9459 124.13 33.7807ZM85.8635 42.2407L78.8453 23.1929H72.3906L83.1483 49.2818H88.5272L99.2342 23.1925H92.9333L85.8635 42.2407ZM160.143 22.6357C152.1 22.6357 146.158 28.7655 146.158 36.2123C146.158 43.6086 152.049 49.637 160.041 49.637C168.135 49.637 174.077 43.5072 174.077 36.111C174.077 28.6642 168.135 22.6357 160.143 22.6357ZM160.143 44.5204C155.481 44.5204 152.152 40.721 152.152 36.111C152.152 31.5518 155.225 27.803 160.041 27.803C164.753 27.803 168.083 31.6024 168.083 36.2123C168.032 40.8223 164.958 44.5204 160.143 44.5204ZM191.853 22.6357C187.806 22.6357 185.347 24.7634 183.657 27.195V23.1929H177.663V49.0798H183.657V34.49C183.657 30.4879 186.064 28.0563 189.548 28.0563C193.134 28.0563 195.132 30.336 195.132 34.3887V49.0797H201.125V32.6156C201.177 26.5871 197.744 22.6357 191.853 22.6357ZM136.22 49.0797H142.214V23.1929H136.22V49.0797Z" fill="#063A41"/>
<path d="M21.1467 20.4575C23.2467 20.4575 24.9887 18.8364 24.9887 16.7087C24.9887 14.581 23.247 12.96 21.1467 12.96C19.0464 12.96 17.3047 14.581 17.3047 16.7087C17.3047 18.8364 19.0464 20.4575 21.1467 20.4575Z" fill="white"/>
<path d="M13.2087 40.4678C13.0038 41.4303 12.8501 42.4435 12.8501 43.2541C12.8501 46.5469 14.6431 48.7253 18.4851 48.7253C21.6613 48.7253 24.2226 46.8509 26.0668 43.862L24.9398 48.3706H31.2408L34.8268 34.0853C35.7489 30.4885 37.4906 28.5634 40.1032 28.5634C42.2032 28.5634 43.4842 29.8299 43.4842 31.9576C43.4909 32.6414 43.4047 33.3229 43.2279 33.984L41.3842 40.5693C41.1263 41.4767 40.9886 42.4132 40.9744 43.3556C40.9744 46.4965 42.818 48.7765 46.7118 48.7765C50.0416 48.7765 52.7054 46.6488 54.1398 41.5829L51.6803 40.6197C50.4509 44.0139 49.375 44.6218 48.5042 44.6218C47.6845 44.6218 47.2235 44.0645 47.2235 42.95C47.2235 42.443 47.3259 41.8862 47.4798 41.2276L49.2728 34.8446C49.6804 33.5315 49.8876 32.1655 49.8875 30.7919C49.8875 25.9794 46.9675 23.4971 43.4328 23.4971C40.103 23.4971 36.722 26.4353 35.0316 29.5761L36.261 23.953H26.6303L25.2984 28.8668H29.8064L27.0401 39.8599C24.8374 44.6724 20.8416 44.7231 20.3806 44.6218C19.5609 44.4192 19.0487 44.1148 19.0487 43.0514C19.0487 42.4435 19.1511 41.5823 19.4585 40.5184L23.6592 23.953H13.0037L11.6719 28.8669H16.1282L13.2087 40.4678Z" fill="white"/>
</svg>
