<svg width="202" height="50" viewBox="0 0 202 50" fill="none" xmlns="http://www.w3.org/2000/svg">
<mask id="mask0_225_1152" style="mask-type:luminance" maskUnits="userSpaceOnUse" x="0" y="0" width="202" height="50">
<path d="M201.628 0.875977H0V49.0985H201.628V0.875977Z" fill="white"/>
</mask>
<g mask="url(#mask0_225_1152)">
<path d="M177.039 17.1748C178.16 17.1748 179.083 16.5926 179.208 15.8405L180.315 3.33813C180.315 2.10236 178.865 1.08789 177.043 1.08789C175.222 1.08789 173.774 2.10237 173.774 3.33834L174.88 15.8408C175.002 16.5927 175.924 17.1751 177.043 17.1751H177.039M170.273 21.0802C170.836 20.1117 170.793 19.0232 170.2 18.5396L159.91 11.3307C158.841 10.7119 157.236 11.4567 156.326 13.0335C155.413 14.6083 155.575 16.3671 156.642 16.986L168.035 22.2846C168.748 22.5483 169.719 22.0408 170.277 21.073L170.273 21.0803M183.811 21.0736C184.372 22.0415 185.339 22.5491 186.051 22.2852L197.445 16.9867C198.519 16.368 198.671 14.6088 197.766 13.0341C196.851 11.4589 195.245 10.7126 194.178 11.3313L183.887 18.5399C183.299 19.0228 183.255 20.1122 183.814 21.0805L183.811 21.0732M177.039 32.7921C178.16 32.7921 179.083 33.3694 179.208 34.1222L180.315 46.6227C180.315 47.8627 178.865 48.8745 177.043 48.8745C175.222 48.8745 173.774 47.8622 173.774 46.6227L174.88 34.1222C175.002 33.3697 175.925 32.7921 177.043 32.7921H177.039M183.811 28.8862C184.373 27.9157 185.339 27.4125 186.052 27.6793L197.445 32.9737C198.519 33.5931 198.671 35.3537 197.766 36.9298C196.851 38.5001 195.244 39.2483 194.177 38.6304L183.887 31.4286C183.299 30.942 183.255 29.8518 183.814 28.8842H183.81M170.273 28.8848C170.836 29.8518 170.793 30.9418 170.2 31.4295L159.91 38.6311C158.841 39.2489 157.236 38.5006 156.326 36.9304C155.413 35.3544 155.575 33.5938 156.642 32.9743L168.035 27.6798C168.747 27.413 169.718 27.9162 170.276 28.8869H170.273" fill="#063A41"/>
<path d="M112.134 31.4061C112.142 31.7865 112.095 32.166 111.995 32.533C111.558 33.9764 110.062 35.197 108.19 35.197C106.629 35.197 105.389 34.3115 105.389 32.4414C105.389 29.5789 108.544 28.7884 112.135 28.8083L112.134 31.4063L112.134 31.4061ZM117.767 26.4177C117.767 21.6976 115.747 17.5442 108.924 17.5442C105.421 17.5442 102.641 18.5268 101.124 19.4025L102.235 23.1967C103.622 22.3223 105.833 21.5985 107.924 21.5985C111.385 21.5889 111.952 23.556 111.952 24.815V25.113C104.407 25.1019 99.6378 27.711 99.6378 33.0259C99.6378 36.2736 102.067 39.3154 106.289 39.3154C108.884 39.3154 111.057 38.2811 112.358 36.6227H112.486C112.486 36.6227 113.347 40.2233 118.097 38.8457C117.85 37.3483 117.768 35.7499 117.768 33.8278L117.768 26.4171M0.210938 11.1161C0.210938 11.1161 5.14128 31.2925 5.92859 34.567C6.84696 38.3891 8.50222 39.7962 13.2721 38.8461L16.3505 26.3375C17.1311 23.229 17.6535 21.0127 18.1564 17.8538H18.244C18.597 21.0462 19.098 23.2386 19.7403 26.3478C19.7403 26.3478 20.9925 32.0268 21.6353 35.0087C22.2782 37.9905 24.0689 39.8695 28.7417 38.8461L36.0775 11.1152H30.1566L27.6511 23.1053C26.9774 26.5939 26.367 29.323 25.8957 32.5138H25.8119C25.3837 29.3511 24.8386 26.7333 24.1544 23.3334L21.548 11.1152H15.3779L12.5883 23.0253C11.7987 26.6455 11.0583 29.5676 10.5893 32.6522H10.5044C10.0228 29.7476 9.38185 26.0736 8.68814 22.571C8.68814 22.571 7.03203 14.0517 6.44954 11.1152L0.211255 11.1161M47.2774 31.4061C47.2855 31.7866 47.238 32.1662 47.1365 32.533C46.7014 33.9764 45.2036 35.197 43.3315 35.197C41.7704 35.197 40.5324 34.3115 40.5324 32.4414C40.5324 29.5789 43.6863 28.7884 47.2781 28.8083L47.2774 31.4055V31.4061ZM52.9095 26.4177C52.9095 21.6976 50.8901 17.5442 44.0677 17.5442C40.564 17.5442 37.7819 18.5268 36.2653 19.4025L37.3753 23.1967C38.7619 22.3223 40.9721 21.5985 43.0643 21.5985C46.528 21.5889 47.0948 23.556 47.0948 24.815V25.113C39.5469 25.1019 34.7797 27.711 34.7797 33.0259C34.7797 36.2736 37.2074 39.3154 41.4269 39.3154C44.025 39.3154 46.1969 38.2811 47.499 36.6227H47.6263C47.6263 36.6227 48.4893 40.2233 53.239 38.8457C52.9907 37.3483 52.9101 35.7499 52.9101 33.8278V26.4177M62.3098 32.9597V11.1165H56.6697V38.8471H62.3091V32.9597M136.084 11.1165V31.5727C136.084 34.3944 136.617 36.3691 137.752 37.5776C138.748 38.6343 140.383 39.3182 142.344 39.3182C144.012 39.3182 145.651 39.0002 146.425 38.7141L146.352 34.3141C145.652 34.4881 144.932 34.5736 144.211 34.5684C142.289 34.5684 141.646 33.339 141.646 30.807V22.9798H146.557V17.6729H141.646V11.1161H136.084M121.528 18.0147V38.8471H127.345V28.1805C127.337 27.6648 127.379 27.1495 127.471 26.642C127.902 24.4065 129.613 22.9794 132.07 22.9794C132.632 22.9849 133.193 23.0342 133.748 23.1267V17.6729C133.327 17.5817 132.898 17.5387 132.467 17.5448C130.296 17.5448 127.826 18.9438 126.789 21.9448H126.632V18.0147H121.528ZM66.2582 18.0147V38.8471H71.9261V26.6309C71.9135 26.0513 72.0036 25.4741 72.1923 24.9258C72.662 23.6964 73.8082 22.2551 75.6372 22.2551C77.9254 22.2551 78.9939 24.1861 78.9939 26.9729V38.8455H84.6572V26.4805C84.6518 25.909 84.7316 25.34 84.894 24.792C85.359 23.392 86.5936 22.2538 88.2942 22.2538C90.6127 22.2538 91.7257 24.1509 91.7257 27.4312V38.8449H97.3925V26.5744C97.3925 20.1042 94.1028 17.5428 90.3885 17.5428C88.7452 17.5428 87.4467 17.9539 86.2723 18.6726C85.2862 19.2794 84.4018 20.139 83.6299 21.2692H83.5461C82.6505 19.0241 80.5429 17.5441 77.7973 17.5441C74.2695 17.5441 72.684 19.3301 71.7223 20.8446H71.6374V18.0139H66.2571" fill="#063A41"/>
<path d="M200.302 37.8347H200.387C200.501 37.8347 200.574 37.7878 200.574 37.718C200.574 37.6388 200.505 37.5958 200.4 37.5958C200.364 37.5958 200.327 37.6031 200.302 37.6031V37.8342L200.302 37.8347ZM200.289 38.3966H199.987V37.4159C200.13 37.3903 200.274 37.3779 200.419 37.3787C200.641 37.3787 200.74 37.4099 200.813 37.459C200.847 37.4833 200.875 37.5157 200.893 37.5532C200.912 37.5907 200.921 37.6321 200.919 37.6739C200.919 37.7746 200.827 37.8598 200.69 37.8966V37.9091C200.745 37.9258 200.794 37.9588 200.831 38.0038C200.867 38.0487 200.889 38.1036 200.894 38.1612C200.907 38.2423 200.93 38.3215 200.962 38.3969H200.621C200.587 38.3314 200.564 38.2604 200.553 38.1872C200.534 38.0879 200.487 38.0381 200.387 38.0381H200.288L200.289 38.3963V38.3966ZM200.413 37.0963C200.206 37.0972 200.009 37.18 199.863 37.3264C199.717 37.4729 199.636 37.6712 199.636 37.8777C199.637 38.0842 199.719 38.2821 199.865 38.4279C200.012 38.5738 200.21 38.6557 200.417 38.6557C200.623 38.6557 200.821 38.5738 200.968 38.4279C201.114 38.2821 201.196 38.0842 201.197 37.8777C201.197 37.6712 201.116 37.4729 200.97 37.3264C200.824 37.18 200.627 37.0972 200.42 37.0963H200.413ZM200.433 36.8301C200.733 36.8312 201.021 36.9515 201.234 37.1645C201.446 37.3776 201.564 37.6661 201.564 37.9666C201.563 38.2671 201.444 38.5552 201.231 38.7675C201.018 38.9798 200.729 39.099 200.428 39.099C200.128 39.099 199.839 38.9798 199.626 38.7675C199.413 38.5552 199.294 38.2671 199.293 37.9666C199.292 37.6661 199.411 37.3776 199.623 37.1645C199.835 36.9515 200.124 36.8312 200.424 36.8301H200.431" fill="#063A41"/>
</g>
</svg>
