<svg width="179" height="55" viewBox="0 0 179 55" fill="none" xmlns="http://www.w3.org/2000/svg">
<mask id="mask0_225_1165" style="mask-type:luminance" maskUnits="userSpaceOnUse" x="0" y="0" width="179" height="55">
<path d="M178.372 0.820801H0V54.5739H178.372V0.820801Z" fill="white"/>
</mask>
<g mask="url(#mask0_225_1165)">
<path d="M0.1875 38.8088V1.78857H6.76349V38.8088H0.1875Z" fill="#063A41"/>
<path d="M23.598 11.9518C15.1667 11.9518 9.33203 18.3624 9.33203 25.7C9.33203 33.8893 15.6794 39.5308 23.6634 39.5308C31.2407 39.5308 37.8162 33.9931 37.8162 25.6824C37.8162 18.6938 32.3675 11.9517 23.5979 11.9517L23.598 11.9518ZM23.5205 18.2251C27.9329 18.2251 31.1811 21.6216 31.1811 25.7236C31.1889 27.7097 30.399 29.6176 28.9849 31.0281C27.5709 32.4385 25.6485 33.2362 23.6402 33.2457C18.9607 33.2457 16.0158 29.578 16.0158 25.7351C16.0157 21.5234 19.3402 18.2251 23.5205 18.2251Z" fill="#063A41"/>
<path d="M54.3363 11.9517C45.9049 11.9517 40.0703 18.3623 40.0703 25.6999C40.0703 33.8892 46.4177 39.5307 54.4017 39.5307C61.979 39.5307 68.5545 33.993 68.5545 25.6823C68.5545 20.7883 66.4113 18.6169 66.4113 18.6169L68.234 17.9988V12.7209H58.8942C57.4281 12.2181 55.8881 11.9581 54.3363 11.9517ZM54.2588 18.225C58.6712 18.225 61.9194 21.6215 61.9194 25.7235C61.9272 27.7096 61.1373 29.6175 59.7233 31.028C58.3092 32.4385 56.3868 33.2361 54.3784 33.2456C49.699 33.2456 46.7541 29.5779 46.7541 25.735C46.7541 21.5233 50.0785 18.225 54.2589 18.225H54.2588Z" fill="#063A41"/>
<path d="M61.8721 40.6191C61.8721 44.9684 58.2913 48.1648 54.3311 48.1648C49.6516 48.1648 46.6948 44.4617 46.6948 40.6191H40.0234C40.0234 48.8084 46.3708 54.4499 54.3548 54.4499C61.9322 54.4499 68.5076 48.9299 68.5076 40.6191H61.8721Z" fill="#063A41"/>
<path d="M71.1914 38.8091V12.7217H77.7674V38.8091H71.1914Z" fill="#063A41"/>
<path d="M84.1513 38.809V18.5647H80.625V12.7214H84.1513V4.71045H90.7273V12.7214H94.3489V18.5647H90.7274V38.809H84.1513Z" fill="#063A41"/>
<path d="M78.8186 5.31214C78.8186 6.16384 78.5632 6.99642 78.0847 7.70459C77.6062 8.41275 76.9261 8.9647 76.1304 9.29063C75.3347 9.61657 74.4592 9.70184 73.6144 9.53568C72.7697 9.36952 71.9938 8.95939 71.3848 8.35714C70.7758 7.7549 70.3611 6.98759 70.193 6.15226C70.025 5.31692 70.1113 4.45107 70.4409 3.6642C70.7704 2.87733 71.3286 2.20478 72.0447 1.7316C72.7608 1.25842 73.6027 1.00586 74.464 1.00586C75.6189 1.00586 76.7265 1.45956 77.5432 2.26714C78.3598 3.07473 78.8186 4.17004 78.8186 5.31214Z" fill="#063A41"/>
<path d="M109.132 11.9338C100.66 11.9338 95.1992 18.3478 95.1992 25.9354C95.1992 33.7763 100.679 39.5482 109.269 39.5482C117.282 39.5482 121.223 34.6 121.223 34.6L116.827 30.2469C116.827 30.2469 113.508 33.7871 109.352 33.7871C105.887 33.7871 103.117 31.8746 102.15 28.3678H122.641V26.5772C122.641 19.4321 118.459 11.9336 109.132 11.9336L109.132 11.9338ZM108.923 17.6593C111.952 17.6593 115.051 19.2619 115.743 23.0903H101.972C102.517 20.3992 104.898 17.6593 108.923 17.6593Z" fill="#063A41"/>
<path d="M139.092 39.5529C130.597 39.5529 124.809 33.1544 124.809 25.6102C124.809 17.8245 131.351 11.9302 139.065 11.9302C146.523 11.9302 150.34 17.1364 150.34 17.1364L145.753 21.6522C145.753 21.6522 143.095 18.257 139.034 18.257C134.533 18.257 131.455 21.6623 131.455 25.71C131.455 29.984 134.729 33.2631 138.984 33.2631C143.111 33.2631 145.747 29.8733 145.747 29.8733L150.38 34.3868C150.38 34.3868 146.6 39.5529 139.093 39.5529H139.092Z" fill="#063A41"/>
<path d="M152.77 38.8281V1.69482H159.346V15.3378C159.346 15.3378 161.863 11.9299 167.341 11.9299C174.227 11.9299 178.216 16.9918 178.216 23.4659V38.8281H171.64V24.4487C171.64 20.0994 168.901 18.2949 165.868 18.2949C162.412 18.2949 159.345 20.24 159.345 24.7854V38.8281H152.77Z" fill="#063A41"/>
</g>
</svg>
