<svg width="1941" height="10" viewBox="0 0 1941 10" fill="none" xmlns="http://www.w3.org/2000/svg">
<g clip-path="url(#clip0_4555_84)">
<path fill-rule="evenodd" clip-rule="evenodd" d="M1.94709 -62.3336C4.51082 -65.9207 5.18263 -63.7481 8.79675 -63.7481C12.4099 -63.7481 12.4099 -63.0154 16.024 -63.0154C19.6371 -63.0154 19.6371 -62.3039 23.2512 -62.3039C26.8643 -62.3039 26.8643 -63.072 30.4785 -63.072C34.0916 -63.072 34.0916 -62.6561 37.7047 -62.6561C41.3188 -62.6561 41.3188 -62.9334 44.932 -62.9334C48.5451 -62.9334 48.5451 -62.9121 52.1592 -62.9121C55.7723 -62.9121 55.7723 -62.7155 59.3854 -62.7155C62.9996 -62.7155 62.9996 -61.9291 66.6127 -61.9291C70.2258 -61.9291 70.2258 -63.0395 73.8399 -63.0395C77.453 -63.0395 77.453 -63.5472 81.0672 -63.5472C84.6813 -63.5472 84.6813 -62.8004 88.2944 -62.8004C91.9085 -62.8004 91.9085 -62.4327 95.5226 -62.4327C99.1368 -62.4327 99.1368 -63.4836 102.751 -63.4836C106.365 -63.4836 106.365 -63.7042 109.979 -63.7042C113.593 -63.7042 113.593 -63.7141 117.208 -63.7141C120.824 -63.7141 120.824 -63.7354 124.438 -63.7354C128.053 -63.7354 128.053 -62.1158 131.668 -62.1158C135.283 -62.1158 135.283 -61.5557 138.899 -61.5557C142.514 -61.5557 142.514 -62.881 146.13 -62.881C149.747 -62.881 149.747 -62.7467 153.362 -62.7467C156.978 -62.7467 156.978 -63.3478 160.593 -63.3478C164.209 -63.3478 164.209 -62.6179 167.824 -62.6179C171.439 -62.6179 171.439 -62.0875 175.054 -62.0875C178.669 -62.0875 178.669 -62.0677 182.284 -62.0677C185.898 -62.0677 185.898 -62.4977 189.513 -62.4977C193.127 -62.4977 193.127 -63.2714 196.741 -63.2714C200.355 -63.2714 200.355 -64.031 203.969 -64.031C207.584 -64.031 207.584 -63.4496 211.198 -63.4496C214.812 -63.4496 214.812 -62.2417 218.426 -62.2417C222.04 -62.2417 222.04 -62.8655 225.653 -62.8655C229.267 -62.8655 229.267 -63.2134 232.881 -63.2134C236.496 -63.2134 236.496 -63.2205 240.109 -63.2205C243.723 -63.2205 243.723 -63.0989 247.337 -63.0989C250.951 -63.0989 250.951 -62.8909 254.564 -62.8909C258.178 -62.8909 258.178 -62.9602 261.792 -62.9602C265.406 -62.9602 265.407 -63.0225 269.021 -63.0225C272.635 -63.0225 272.635 -63.1059 276.249 -63.1059C279.864 -63.1059 279.864 -62.8174 283.478 -62.8174C287.093 -62.8174 287.093 -62.5642 290.707 -62.5642C294.322 -62.5642 294.322 -62.8966 297.938 -62.8966C301.553 -62.8966 301.553 -62.9136 305.168 -62.9136C308.784 -62.9136 308.784 -62.2955 312.399 -62.2955C316.015 -62.2955 316.015 -62.7665 319.631 -62.7665C323.247 -62.7665 323.247 -62.5147 326.863 -62.5147C330.479 -62.5147 330.479 -61.9305 334.095 -61.9305C337.71 -61.9305 337.71 -62.6179 341.325 -62.6179C344.94 -62.6179 344.94 -63.2785 348.555 -63.2785C352.171 -63.2785 352.171 -63.9207 355.786 -63.9207C359.4 -63.9207 359.4 -62.7212 363.015 -62.7212C366.629 -62.7212 366.629 -63.0055 370.243 -63.0055C373.858 -63.0055 373.858 -61.7792 377.472 -61.7792C381.087 -61.7792 381.087 -63.6462 384.701 -63.6462C388.315 -63.6462 388.315 -62.4539 391.93 -62.4539C395.544 -62.4539 395.544 -62.9871 399.158 -62.9871C402.772 -62.9871 402.772 -62.6052 406.386 -62.6052C410.001 -62.6052 410.001 -63.5048 413.615 -63.5048C417.229 -63.5048 417.229 -62.5005 420.844 -62.5005C424.458 -62.5005 424.458 -63.055 428.072 -63.055C431.687 -63.055 431.687 -62.7452 435.302 -62.7452C438.917 -62.7452 438.917 -62.2007 442.532 -62.2007C446.147 -62.2007 446.147 -62.5218 449.762 -62.5218C453.378 -62.5218 453.378 -62.1413 456.993 -62.1413C460.609 -62.1413 460.609 -61.4821 464.224 -61.4821C467.841 -61.4821 467.841 -63.8132 471.457 -63.8132C475.073 -63.8132 475.073 -63.3393 478.689 -63.3393C482.305 -63.3393 482.305 -62.4595 485.92 -62.4595C489.536 -62.4595 489.536 -62.4624 493.151 -62.4624C496.767 -62.4624 496.767 -63.6095 500.382 -63.6095C503.997 -63.6095 503.997 -62.4906 507.612 -62.4906C511.226 -62.4906 511.226 -61.8895 514.841 -61.8895C518.455 -61.8895 518.455 -63.0607 522.07 -63.0607C525.685 -63.0607 525.685 -63.3987 529.3 -63.3987C532.914 -63.3987 532.914 -64.212 536.528 -64.212C540.143 -64.212 540.143 -62.5614 543.757 -62.5614C547.372 -62.5614 547.372 -62.8669 550.986 -62.8669C554.602 -62.8669 554.602 -62.973 558.216 -62.973C561.831 -62.973 561.831 -61.9899 565.446 -61.9899C569.061 -61.9899 569.061 -62.782 572.676 -62.782C576.291 -62.782 576.291 -62.997 579.907 -62.997C583.522 -62.997 583.522 -63.1809 587.138 -63.1809C590.754 -63.1809 590.754 -61.8414 594.37 -61.8414C597.986 -61.8414 597.986 -62.3803 601.602 -62.3803C605.218 -62.3803 605.218 -63.1441 608.835 -63.1441C612.451 -63.1441 612.451 -62.2643 616.066 -62.2643C619.682 -62.2643 619.682 -63.4369 623.297 -63.4369C626.912 -63.4369 626.912 -63.0593 630.527 -63.0593C634.142 -63.0593 634.142 -63.7339 637.758 -63.7339C641.373 -63.7339 641.373 -62.8923 644.987 -62.8923C648.602 -62.8923 648.602 -62.9659 652.217 -62.9659C655.831 -62.9659 655.831 -63.8259 659.446 -63.8259C663.061 -63.8259 663.061 -62.8216 666.676 -62.8216C670.291 -62.8216 670.291 -63.5868 673.906 -63.5868C677.521 -63.5868 677.521 -62.5062 681.136 -62.5062C684.751 -62.5062 684.751 -63.3563 688.366 -63.3563C691.981 -63.3563 691.981 -62.7424 695.598 -62.7424C699.214 -62.7424 699.214 -63.0281 702.829 -63.0281C706.445 -63.0281 706.445 -63.4751 710.061 -63.4751C713.678 -63.4751 713.678 -63.4468 717.294 -63.4468C720.91 -63.4468 720.911 -62.8641 724.527 -62.8641C728.142 -62.8641 728.142 -62.8174 731.758 -62.8174C735.373 -62.8174 735.373 -64.0281 738.988 -64.0281C742.604 -64.0281 742.604 -63.311 746.219 -63.311C749.835 -63.311 749.834 -62.7806 753.45 -62.7806C757.065 -62.7806 757.065 -62.3605 760.679 -62.3605C764.294 -62.3605 764.294 -63.154 767.909 -63.154C771.524 -63.154 771.524 -62.6703 775.139 -62.6703C778.755 -62.6703 778.755 -62.4793 782.37 -62.4793C785.986 -62.4793 785.986 -62.8853 789.601 -62.8853C793.217 -62.8853 793.217 -63.6095 796.832 -63.6095C800.448 -63.6095 800.448 -63.6533 804.064 -63.6533C807.681 -63.6533 807.681 -64.0182 811.297 -64.0182C814.914 -64.0182 814.914 -63.2021 818.53 -63.2021C822.146 -63.2021 822.146 -63.137 825.762 -63.137C829.377 -63.137 829.377 -62.0253 832.993 -62.0253C836.609 -62.0253 836.609 -64.0876 840.224 -64.0876C843.84 -64.0876 843.84 -62.5345 847.455 -62.5345C851.07 -62.5345 851.07 -63.4652 854.685 -63.4652C858.3 -63.4652 858.3 -63.8754 861.916 -63.8754C865.531 -63.8754 865.531 -61.7749 869.147 -61.7749C872.762 -61.7749 872.762 -62.3506 876.377 -62.3506C879.993 -62.3506 879.993 -63.3266 883.609 -63.3266C887.224 -63.3266 887.224 -64.2375 890.84 -64.2375C894.458 -64.2375 894.458 -64.1257 898.074 -64.1257C901.69 -64.1257 901.69 -63.0211 905.307 -63.0211C908.923 -63.0211 908.923 -63.0225 912.539 -63.0225C916.154 -63.0225 916.154 -61.9871 919.771 -61.9871C923.386 -61.9871 923.386 -63.4737 927.002 -63.4737C930.617 -63.4737 930.617 -62.5005 934.232 -62.5005C937.848 -62.5005 937.848 -62.0352 941.463 -62.0352C945.078 -62.0352 945.079 -62.7283 948.695 -62.7283C952.31 -62.7283 952.31 -63.3252 955.926 -63.3252C959.541 -63.3252 959.541 -62.7509 963.157 -62.7509C966.773 -62.7509 966.773 -63.0762 970.389 -63.0762C974.007 -63.0762 974.007 -63.1498 977.623 -63.1498C981.24 -63.1498 981.24 -62.5501 984.856 -62.5501C988.472 -62.5501 988.472 -62.5529 992.088 -62.5529C995.703 -62.5529 995.703 -62.6675 999.319 -62.6675C1002.93 -62.6675 1002.93 -63.5868 1006.55 -63.5868C1010.17 -63.5868 1010.17 -62.5246 1013.78 -62.5246C1017.4 -62.5246 1017.4 -63.9023 1021.01 -63.9023C1024.63 -63.9023 1024.63 -63.1215 1028.24 -63.1215C1031.86 -63.1215 1031.86 -63.7976 1035.48 -63.7976C1039.09 -63.7976 1039.09 -63.526 1042.71 -63.526C1046.33 -63.526 1046.33 -61.8853 1049.94 -61.8853C1053.56 -61.8853 1053.56 -63.1172 1057.18 -63.1172C1060.79 -63.1172 1060.79 -63.2474 1064.41 -63.2474C1068.02 -63.2474 1068.02 -62.7028 1071.64 -62.7028C1075.26 -62.7028 1075.26 -62.7523 1078.87 -62.7523C1082.49 -62.7523 1082.49 -61.7523 1086.1 -61.7523C1089.72 -61.7523 1089.72 -63.0324 1093.33 -63.0324C1096.95 -63.0324 1096.95 -63.4935 1100.57 -63.4935C1104.18 -63.4935 1104.18 -61.9065 1107.8 -61.9065C1111.42 -61.9065 1111.42 -61.8046 1115.03 -61.8046C1118.65 -61.8046 1118.65 -62.7608 1122.27 -62.7608C1125.88 -62.7608 1125.88 -63.2643 1129.5 -63.2643C1133.11 -63.2643 1133.11 -62.4525 1136.73 -62.4525C1140.34 -62.4525 1140.34 -62.6957 1143.96 -62.6957C1147.58 -62.6957 1147.58 -63.3648 1151.19 -63.3648C1154.81 -63.3648 1154.81 -61.5642 1158.43 -61.5642C1162.04 -61.5642 1162.04 -62.0493 1165.66 -62.0493C1169.28 -62.0493 1169.28 -62.2771 1172.89 -62.2771C1176.51 -62.2771 1176.51 -62.0889 1180.12 -62.0889C1183.74 -62.0889 1183.74 -62.2841 1187.36 -62.2841C1190.97 -62.2841 1190.97 -63.8443 1194.59 -63.8443C1198.2 -63.8443 1198.2 -63.8315 1201.82 -63.8315C1205.44 -63.8315 1205.44 -63.6505 1209.05 -63.6505C1212.67 -63.6505 1212.67 -62.6208 1216.29 -62.6208C1219.9 -62.6208 1219.9 -63.8018 1223.52 -63.8018C1227.13 -63.8018 1227.13 -62.7735 1230.75 -62.7735C1234.36 -62.7735 1234.36 -62.9829 1237.98 -62.9829C1241.59 -62.9829 1241.59 -62.079 1245.21 -62.079C1248.82 -62.079 1248.82 -62.6123 1252.43 -62.6123C1256.05 -62.6123 1256.05 -63.9914 1259.66 -63.9914C1263.27 -63.9914 1263.27 -62.021 1266.89 -62.021C1270.5 -62.021 1270.5 -62.6547 1274.12 -62.6547C1277.73 -62.6547 1277.73 -63.5189 1281.35 -63.5189C1284.96 -63.5189 1284.96 -62.1696 1288.58 -62.1696C1292.19 -62.1696 1292.19 -63.212 1295.81 -63.212C1299.43 -63.212 1299.43 -62.5868 1303.04 -62.5868C1306.66 -62.5868 1306.66 -62.9433 1310.27 -62.9433C1313.89 -62.9433 1313.89 -63.7948 1317.51 -63.7948C1321.12 -63.7948 1321.12 -62.898 1324.74 -62.898C1328.35 -62.898 1328.35 -62.915 1331.96 -62.915C1335.58 -62.915 1335.58 -62.8867 1339.19 -62.8867C1342.81 -62.8867 1342.81 -63.0465 1346.42 -63.0465C1350.04 -63.0465 1350.04 -64.1866 1353.65 -64.1866C1357.27 -64.1866 1357.27 -63.1965 1360.88 -63.1965C1364.5 -63.1965 1364.5 -63.5713 1368.11 -63.5713C1371.73 -63.5713 1371.73 -62.7622 1375.35 -62.7622C1378.97 -62.7622 1378.97 -62.8796 1382.58 -62.8796C1386.2 -62.8796 1386.2 -62.8089 1389.81 -62.8089C1393.43 -62.8089 1393.43 -63.0805 1397.04 -63.0805C1400.66 -63.0805 1400.66 -62.8513 1404.27 -62.8513C1407.89 -62.8513 1407.89 -64.2545 1411.5 -64.2545C1415.12 -64.2545 1415.12 -62.56 1418.73 -62.56C1422.35 -62.56 1422.35 -62.8796 1425.97 -62.8796C1429.58 -62.8796 1429.58 -63.4765 1433.2 -63.4765C1436.82 -63.4765 1436.82 -63.6194 1440.44 -63.6194C1444.05 -63.6194 1444.05 -62.6717 1447.67 -62.6717C1451.28 -62.6717 1451.28 -63.5586 1454.9 -63.5586C1458.51 -63.5586 1458.51 -63.1286 1462.13 -63.1286C1465.75 -63.1286 1465.75 -63.9984 1469.36 -63.9984C1472.98 -63.9984 1472.98 -62.898 1476.59 -62.898C1480.21 -62.898 1480.21 -62.9815 1483.83 -62.9815C1487.44 -62.9815 1487.44 -62.9588 1491.06 -62.9588C1494.68 -62.9588 1494.68 -62.741 1498.29 -62.741C1501.91 -62.741 1501.91 -63.6618 1505.53 -63.6618C1509.14 -63.6618 1509.14 -62.0932 1512.76 -62.0932C1516.37 -62.0932 1516.37 -62.3011 1519.99 -62.3011C1523.61 -62.3011 1523.61 -62.5755 1527.23 -62.5755C1530.84 -62.5755 1530.84 -62.1003 1534.46 -62.1003C1538.08 -62.1003 1538.08 -62.5897 1541.69 -62.5897C1545.31 -62.5897 1545.31 -62.4213 1548.93 -62.4213C1552.54 -62.4213 1552.54 -63.2445 1556.16 -63.2445C1559.78 -63.2445 1559.78 -61.973 1563.39 -61.973C1567.01 -61.973 1567.01 -63.3874 1570.63 -63.3874C1574.25 -63.3874 1574.25 -62.2855 1577.86 -62.2855C1581.48 -62.2855 1581.48 -62.9334 1585.09 -62.9334C1588.71 -62.9334 1588.71 -62.4906 1592.33 -62.4906C1595.95 -62.4906 1595.95 -63.0041 1599.56 -63.0041C1603.18 -63.0041 1603.18 -63.9518 1606.8 -63.9518C1610.42 -63.9518 1610.42 -63.2276 1614.03 -63.2276C1617.65 -63.2276 1617.65 -62.8131 1621.27 -62.8131C1624.88 -62.8131 1624.88 -62.6349 1628.5 -62.6349C1632.12 -62.6349 1632.12 -62.898 1635.74 -62.898C1639.35 -62.898 1639.35 -62.4341 1642.97 -62.4341C1646.59 -62.4341 1646.59 -62.294 1650.21 -62.294C1653.82 -62.294 1653.82 -63.1724 1657.44 -63.1724C1661.06 -63.1724 1661.06 -63.4991 1664.68 -63.4991C1668.29 -63.4991 1668.29 -61.5373 1671.91 -61.5373C1675.53 -61.5373 1675.53 -62.9362 1679.15 -62.9362C1682.76 -62.9362 1682.76 -64.2488 1686.38 -64.2488C1690 -64.2488 1690 -62.1795 1693.62 -62.1795C1697.23 -62.1795 1697.23 -62.5189 1700.85 -62.5189C1704.47 -62.5189 1704.47 -62.3393 1708.09 -62.3393C1711.71 -62.3393 1711.71 -63.0635 1715.32 -63.0635C1718.94 -63.0635 1718.94 -63.0494 1722.56 -63.0494C1726.18 -63.0494 1726.18 -62.6929 1729.8 -62.6929C1733.41 -62.6929 1733.41 -63.1356 1737.03 -63.1356C1740.64 -63.1356 1740.64 -62.799 1744.26 -62.799C1747.88 -62.799 1747.88 -64.0253 1751.49 -64.0253C1755.11 -64.0253 1755.11 -62.6547 1758.73 -62.6547C1762.34 -62.6547 1762.34 -63.1243 1765.96 -63.1243C1769.58 -63.1243 1769.58 -62.8994 1773.19 -62.8994C1776.81 -62.8994 1776.81 -61.84 1780.43 -61.84C1784.05 -61.84 1784.05 -62.6731 1787.66 -62.6731C1791.28 -62.6731 1791.28 -64.0126 1794.9 -64.0126C1798.52 -64.0126 1798.52 -64.2248 1802.13 -64.2248C1805.75 -64.2248 1805.75 -62.5953 1809.37 -62.5953C1812.99 -62.5953 1812.99 -63.1399 1816.61 -63.1399C1820.23 -63.1399 1820.23 -64.089 1823.84 -64.089C1827.46 -64.089 1827.46 -62.7792 1831.08 -62.7792C1834.7 -62.7792 1834.7 -63.9447 1838.32 -63.9447C1841.94 -63.9447 1841.94 -63.9532 1845.56 -63.9532C1849.18 -63.9532 1849.18 -62.8315 1852.8 -62.8315C1856.41 -62.8315 1856.41 -61.8881 1860.03 -61.8881C1863.65 -61.8881 1863.65 -62.6052 1867.27 -62.6052C1870.89 -62.6052 1870.89 -63.5119 1874.51 -63.5119C1878.13 -63.5119 1878.13 -62.8697 1881.75 -62.8697C1885.37 -62.8697 1885.37 -62.41 1888.99 -62.41C1892.61 -62.41 1892.61 -62.6208 1896.22 -62.6208C1899.84 -62.6208 1899.84 -63.4765 1903.46 -63.4765C1907.08 -63.4765 1907.08 -63.3577 1910.7 -63.3577C1914.32 -63.3577 1914.32 -62.8075 1917.94 -62.8075C1921.56 -62.8075 1921.56 -63.3832 1925.18 -63.3832C1928.81 -63.3832 1928.81 -62.7297 1932.43 -62.7297C1936.06 -62.7297 1936.88 -66.1442 1939.46 -62.5543C1942 -59.004 1939.51 -57.8201 1939.51 -52.772C1939.51 -47.7224 1940.05 -47.7224 1940.05 -42.6728C1940.05 -37.6218 1939.64 -37.6218 1939.64 -32.5708C1939.64 -27.5241 1940.2 -27.5241 1940.2 -22.4759C1940.2 -17.4235 1939.42 -17.4235 1939.42 -12.3711C1939.42 -7.31443 1939.75 -7.31443 1939.75 -2.25919C1939.75 2.79605 1942.52 4.70131 1939.97 8.26431C1937.4 11.8513 1936.07 7.8527 1932.45 7.8527C1928.84 7.8527 1928.84 7.25863 1925.22 7.25863C1921.61 7.25863 1921.61 6.49341 1918 6.49341C1914.38 6.49341 1914.38 8.96445 1910.77 8.96445C1907.16 8.96445 1907.16 8.86262 1903.54 8.86262C1899.93 8.86262 1899.93 7.40008 1896.32 7.40008C1892.7 7.40008 1892.7 7.99273 1889.09 7.99273C1885.48 7.99273 1885.48 8.64762 1881.86 8.64762C1878.25 8.64762 1878.25 7.28126 1874.63 7.28126C1871.02 7.28126 1871.02 9.36616 1867.41 9.36616C1863.79 9.36616 1863.79 8.85979 1860.18 8.85979C1856.57 8.85979 1856.57 7.55708 1852.95 7.55708C1849.34 7.55708 1849.34 7.67448 1845.73 7.67448C1842.11 7.67448 1842.11 8.8612 1838.5 8.8612C1834.88 8.8612 1834.88 7.63346 1831.27 7.63346C1827.65 7.63346 1827.65 8.41565 1824.04 8.41565C1820.42 8.41565 1820.42 8.24167 1816.81 8.24167C1813.19 8.24167 1813.19 8.09174 1809.58 8.09174C1805.96 8.09174 1805.96 8.00264 1802.35 8.00264C1798.73 8.00264 1798.73 7.43685 1795.12 7.43685C1791.5 7.43685 1791.5 8.00546 1787.88 8.00546C1784.27 8.00546 1784.27 8.96163 1780.65 8.96163C1777.04 8.96163 1777.04 8.5967 1773.42 8.5967C1769.81 8.5967 1769.81 7.95313 1766.19 7.95313C1762.58 7.95313 1762.58 9.15824 1758.96 9.15824C1755.35 9.15824 1755.35 7.33643 1751.73 7.33643C1748.12 7.33643 1748.12 7.29541 1744.51 7.29541C1740.89 7.29541 1740.89 8.12286 1737.28 8.12286C1733.66 8.12286 1733.66 6.89512 1730.05 6.89512C1726.44 6.89512 1726.44 7.48919 1722.82 7.48919C1719.21 7.48919 1719.21 7.84987 1715.59 7.84987C1711.98 7.84987 1711.98 7.78339 1708.37 7.78339C1704.75 7.78339 1704.75 8.46799 1701.14 8.46799C1697.52 8.46799 1697.52 8.0974 1693.91 8.0974C1690.3 8.0974 1690.3 9.04791 1686.68 9.04791C1683.07 9.04791 1683.07 6.70134 1679.46 6.70134C1675.84 6.70134 1675.84 8.18227 1672.23 8.18227C1668.61 8.18227 1668.61 8.62358 1665 8.62358C1661.38 8.62358 1661.38 6.61789 1657.77 6.61789C1654.15 6.61789 1654.15 8.16247 1650.54 8.16247C1646.92 8.16247 1646.92 8.42272 1643.31 8.42272C1639.69 8.42272 1639.69 7.80744 1636.08 7.80744C1632.46 7.80744 1632.46 6.82015 1628.85 6.82015C1625.23 6.82015 1625.23 7.77208 1621.62 7.77208C1618 7.77208 1618 7.76783 1614.38 7.76783C1610.77 7.76783 1610.77 9.15682 1607.15 9.15682C1603.54 9.15682 1603.54 7.19781 1599.92 7.19781C1596.31 7.19781 1596.31 6.90644 1592.69 6.90644C1589.08 6.90644 1589.08 7.83149 1585.46 7.83149C1581.85 7.83149 1581.85 7.42695 1578.23 7.42695C1574.62 7.42695 1574.62 7.95879 1571 7.95879C1567.39 7.95879 1567.39 7.74096 1563.78 7.74096C1560.16 7.74096 1560.16 7.9701 1556.55 7.9701C1552.93 7.9701 1552.93 7.47221 1549.32 7.47221C1545.7 7.47221 1545.7 8.32513 1542.09 8.32513C1538.48 8.32513 1538.48 8.64479 1534.86 8.64479C1531.25 8.64479 1531.25 8.0677 1527.63 8.0677C1524.02 8.0677 1524.02 8.15964 1520.4 8.15964C1516.79 8.15964 1516.79 8.58256 1513.17 8.58256C1509.56 8.58256 1509.56 6.39582 1505.95 6.39582C1502.33 6.39582 1502.33 6.9715 1498.72 6.9715C1495.1 6.9715 1495.1 8.37888 1491.48 8.37888C1487.87 8.37888 1487.87 8.14266 1484.25 8.14266C1480.64 8.14266 1480.64 8.14549 1477.02 8.14549C1473.41 8.14549 1473.41 7.14406 1469.79 7.14406C1466.17 7.14406 1466.17 8.28835 1462.56 8.28835C1458.94 8.28835 1458.94 7.84704 1455.33 7.84704C1451.71 7.84704 1451.71 7.82159 1448.1 7.82159C1444.48 7.82159 1444.48 8.2926 1440.87 8.2926C1437.25 8.2926 1437.25 8.82018 1433.64 8.82018C1430.02 8.82018 1430.02 8.83715 1426.41 8.83715C1422.79 8.83715 1422.79 9.3987 1419.18 9.3987C1415.56 9.3987 1415.56 8.19782 1411.95 8.19782C1408.33 8.19782 1408.33 8.02385 1404.72 8.02385C1401.1 8.02385 1401.1 7.17942 1397.49 7.17942C1393.88 7.17942 1393.88 8.14125 1390.26 8.14125C1386.65 8.14125 1386.65 8.18651 1383.03 8.18651C1379.42 8.18651 1379.42 8.5868 1375.8 8.5868C1372.19 8.5868 1372.19 8.49627 1368.57 8.49627C1364.96 8.49627 1364.96 7.17942 1361.34 7.17942C1357.73 7.17942 1357.73 7.5585 1354.11 7.5585C1350.49 7.5585 1350.49 7.40432 1346.88 7.40432C1343.26 7.40432 1343.26 8.07618 1339.65 8.07618C1336.03 8.07618 1336.03 7.95737 1332.41 7.95737C1328.8 7.95737 1328.8 8.15115 1325.18 8.15115C1321.57 8.15115 1321.57 8.1172 1317.95 8.1172C1314.34 8.1172 1314.34 7.94181 1310.72 7.94181C1307.11 7.94181 1307.11 7.47363 1303.49 7.47363C1299.88 7.47363 1299.88 6.83571 1296.26 6.83571C1292.65 6.83571 1292.65 8.53163 1289.03 8.53163C1285.42 8.53163 1285.42 6.45381 1281.8 6.45381C1278.19 6.45381 1278.19 8.50759 1274.57 8.50759C1270.96 8.50759 1270.96 7.63063 1267.34 7.63063C1263.73 7.63063 1263.73 6.68578 1260.11 6.68578C1256.5 6.68578 1256.5 7.88806 1252.88 7.88806C1249.27 7.88806 1249.27 7.83149 1245.65 7.83149C1242.03 7.83149 1242.03 7.99273 1238.42 7.99273C1234.8 7.99273 1234.8 7.72964 1231.19 7.72964C1227.57 7.72964 1227.57 7.6278 1223.95 7.6278C1220.34 7.6278 1220.34 7.63488 1216.72 7.63488C1213.1 7.63488 1213.1 6.55848 1209.49 6.55848C1205.87 6.55848 1205.87 6.64476 1202.26 6.64476C1198.64 6.64476 1198.64 7.22044 1195.03 7.22044C1191.41 7.22044 1191.41 7.54577 1187.8 7.54577C1184.18 7.54577 1184.18 8.66601 1180.57 8.66601C1176.95 8.66601 1176.95 8.4694 1173.34 8.4694C1169.72 8.4694 1169.72 7.86684 1166.11 7.86684C1162.49 7.86684 1162.49 8.31381 1158.88 8.31381C1155.26 8.31381 1155.26 7.60234 1151.65 7.60234C1148.03 7.60234 1148.03 8.4298 1144.42 8.4298C1140.8 8.4298 1140.8 7.72398 1137.18 7.72398C1133.57 7.72398 1133.57 8.5868 1129.95 8.5868C1126.33 8.5868 1126.33 7.07193 1122.72 7.07193C1119.1 7.07193 1119.1 7.79612 1115.49 7.79612C1111.87 7.79612 1111.87 7.60658 1108.25 7.60658C1104.64 7.60658 1104.64 8.32371 1101.02 8.32371C1097.41 8.32371 1097.41 8.17237 1093.79 8.17237C1090.18 8.17237 1090.18 7.37179 1086.56 7.37179C1082.95 7.37179 1082.95 7.75793 1079.33 7.75793C1075.72 7.75793 1075.72 7.5981 1072.1 7.5981C1068.49 7.5981 1068.49 7.73106 1064.87 7.73106C1061.25 7.73106 1061.25 7.20488 1057.64 7.20488C1054.02 7.20488 1054.02 9.33222 1050.41 9.33222C1046.79 9.33222 1046.79 8.14408 1043.17 8.14408C1039.56 8.14408 1039.56 6.83288 1035.94 6.83288C1032.32 6.83288 1032.32 8.72542 1028.71 8.72542C1025.09 8.72542 1025.09 8.04789 1021.48 8.04789C1017.86 8.04789 1017.86 7.79895 1014.25 7.79895C1010.63 7.79895 1010.63 8.18651 1007.01 8.18651C1003.4 8.18651 1003.4 8.89656 999.784 8.89656C996.168 8.89656 996.168 7.8131 992.553 7.8131C988.937 7.8131 988.937 8.19782 985.322 8.19782C981.706 8.19782 981.706 8.82443 978.091 8.82443C974.473 8.82443 974.473 8.84281 970.857 8.84281C967.241 8.84281 967.241 8.68723 963.624 8.68723C960.008 8.68723 960.008 8.07618 956.392 8.07618C952.776 8.07618 952.776 7.49202 949.16 7.49202C945.543 7.49202 945.543 8.47506 941.928 8.47506C938.312 8.47506 938.312 7.72115 934.697 7.72115C931.081 7.72115 931.081 8.17661 927.466 8.17661C923.85 8.17661 923.85 6.66174 920.235 6.66174C916.618 6.66174 916.618 7.30389 913.002 7.30389C909.387 7.30389 909.387 9.19925 905.771 9.19925C902.154 9.19925 902.154 8.881 898.538 8.881C894.921 8.881 894.921 7.29117 891.304 7.29117C887.688 7.29117 887.688 8.11579 884.072 8.11579C880.456 8.11579 880.456 7.27702 876.84 7.27702C873.224 7.27702 873.224 7.05496 869.609 7.05496C865.993 7.05496 865.993 7.65185 862.376 7.65185C858.761 7.65185 858.761 6.69285 855.145 6.69285C851.529 6.69285 851.529 8.85555 847.913 8.85555C844.297 8.85555 844.297 9.16672 840.681 9.16672C837.065 9.16672 837.065 7.49343 833.447 7.49343C829.831 7.49343 829.831 6.91634 826.214 6.91634C822.598 6.91634 822.598 7.03656 818.982 7.03656C815.366 7.03656 815.366 7.71833 811.75 7.71833C808.134 7.71833 808.134 8.18793 804.518 8.18793C800.902 8.18793 800.902 8.53305 797.286 8.53305C793.67 8.53305 793.67 6.39723 790.055 6.39723C786.438 6.39723 786.438 8.81735 782.822 8.81735C779.204 8.81735 779.204 7.5783 775.587 7.5783C771.971 7.5783 771.971 7.77632 768.355 7.77632C764.739 7.77632 764.739 8.74098 761.123 8.74098C757.507 8.74098 757.507 8.97294 753.89 8.97294C750.274 8.97294 750.274 8.19358 746.658 8.19358C743.042 8.19358 743.042 7.05212 739.426 7.05212C735.81 7.05212 735.81 7.63205 732.195 7.63205C728.578 7.63205 728.578 8.35483 724.96 8.35483C721.344 8.35483 721.344 6.71973 717.728 6.71973C714.114 6.71973 714.114 8.53163 710.499 8.53163C706.884 8.53163 706.884 6.49059 703.27 6.49059C699.656 6.49059 699.656 8.13984 696.041 8.13984C692.428 8.13984 692.428 8.54437 688.814 8.54437C685.2 8.54437 685.2 7.67307 681.587 7.67307C677.973 7.67307 677.973 7.54011 674.36 7.54011C670.746 7.54011 670.746 8.45526 667.131 8.45526C663.516 8.45526 663.516 6.99979 659.902 6.99979C656.287 6.99979 656.287 7.90362 652.672 7.90362C649.056 7.90362 649.056 7.87957 645.44 7.87957C641.823 7.87957 641.823 7.13133 638.205 7.13133C634.589 7.13133 634.589 8.45667 630.972 8.45667C627.357 8.45667 627.357 6.85127 623.742 6.85127C620.127 6.85127 620.127 8.27421 616.513 8.27421C612.898 8.27421 612.898 8.45667 609.283 8.45667C605.669 8.45667 605.669 8.37321 602.055 8.37321C598.44 8.37321 598.44 8.73673 594.826 8.73673C591.211 8.73673 591.211 8.11579 587.597 8.11579C583.98 8.11579 583.98 7.61507 580.365 7.61507C576.748 7.61507 576.748 8.50759 573.132 8.50759C569.515 8.50759 569.515 7.0988 565.898 7.0988C562.282 7.0988 562.282 7.41564 558.665 7.41564C555.049 7.41564 555.049 7.79471 551.433 7.79471C547.818 7.79471 547.818 6.71549 544.204 6.71549C540.589 6.71549 540.589 7.7452 536.974 7.7452C533.359 7.7452 533.359 8.82443 529.744 8.82443C526.128 8.82443 526.128 7.68721 522.513 7.68721C518.896 7.68721 518.896 7.66599 515.28 7.66599C511.663 7.66599 511.663 7.50334 508.046 7.50334C504.429 7.50334 504.429 7.70277 500.812 7.70277C497.196 7.70277 497.196 8.67025 493.58 8.67025C489.964 8.67025 489.964 8.80462 486.349 8.80462C482.734 8.80462 482.734 8.02102 479.118 8.02102C475.503 8.02102 475.503 8.79614 471.886 8.79614C468.27 8.79614 468.27 7.43685 464.654 7.43685C461.037 7.43685 461.037 8.21763 457.419 8.21763C453.803 8.21763 453.803 9.05781 450.186 9.05781C446.57 9.05781 446.57 6.90785 442.952 6.90785C439.337 6.90785 439.337 7.80178 435.721 7.80178C432.105 7.80178 432.105 8.51183 428.49 8.51183C424.873 8.51183 424.873 9.27563 421.257 9.27563C417.639 9.27563 417.639 8.28411 414.021 8.28411C410.404 8.28411 410.404 7.52738 406.787 7.52738C403.171 7.52738 403.171 8.77492 399.555 8.77492C395.939 8.77492 395.939 8.22329 392.323 8.22329C388.705 8.22329 388.705 8.63207 385.089 8.63207C381.472 8.63207 381.472 8.07477 377.855 8.07477C374.237 8.07477 374.237 7.37745 370.62 7.37745C367.003 7.37745 367.003 6.96867 363.386 6.96867C359.769 6.96867 359.769 7.31945 356.153 7.31945C352.536 7.31945 352.536 7.32794 348.919 7.32794C345.301 7.32794 345.301 7.9899 341.684 7.9899C338.067 7.9899 338.067 7.56415 334.448 7.56415C330.832 7.56415 330.832 7.30248 327.215 7.30248C323.598 7.30248 323.598 8.24167 319.981 8.24167C316.363 8.24167 316.363 8.54437 312.745 8.54437C309.127 8.54437 309.127 7.67731 305.51 7.67731C301.893 7.67731 301.893 7.95737 298.277 7.95737C294.659 7.95737 294.659 8.52456 291.042 8.52456C287.424 8.52456 287.424 7.96444 283.805 7.96444C280.188 7.96444 280.188 8.9588 276.571 8.9588C272.954 8.9588 272.954 6.81025 269.336 6.81025C265.719 6.81025 265.719 7.43261 262.101 7.43261C258.484 7.43261 258.484 8.13277 254.866 8.13277C251.248 8.13277 251.248 6.92199 247.63 6.92199C244.012 6.92199 244.012 7.15538 240.395 7.15538C236.777 7.15538 236.777 7.80178 233.16 7.80178C229.541 7.80178 229.541 8.84564 225.923 8.84564C222.305 8.84564 222.305 8.59953 218.688 8.59953C215.069 8.59953 215.069 8.83715 211.451 8.83715C207.835 8.83715 207.835 7.7933 204.219 7.7933C200.603 7.7933 200.603 7.48494 196.988 7.48494C193.372 7.48494 193.372 7.57971 189.755 7.57971C186.138 7.57971 186.138 6.85976 182.52 6.85976C178.904 6.85976 178.904 8.8711 175.287 8.8711C171.671 8.8711 171.671 9.03942 168.054 9.03942C164.436 9.03942 164.436 8.23885 160.818 8.23885C157.201 8.23885 157.201 7.66175 153.585 7.66175C149.966 7.66175 149.966 7.0394 146.347 7.0394C142.73 7.0394 142.73 8.43404 139.113 8.43404C135.495 8.43404 135.495 6.97999 131.877 6.97999C128.259 6.97999 128.259 7.09738 124.641 7.09738C121.022 7.09738 121.022 8.00688 117.403 8.00688C113.785 8.00688 113.785 7.10446 110.167 7.10446C106.548 7.10446 106.548 7.29682 102.93 7.29682C99.3095 7.29682 99.3095 7.83573 95.6903 7.83573C92.0712 7.83573 92.0712 7.82583 88.4521 7.82583C84.8329 7.82583 84.8329 7.37462 81.2138 7.37462C77.5946 7.37462 77.5946 8.4496 73.9745 8.4496C70.3543 8.4496 70.3543 8.35907 66.7352 8.35907C63.117 8.35907 63.117 6.85976 59.4999 6.85976C55.8798 6.85976 55.8798 7.82724 52.2606 7.82724C48.6415 7.82724 48.6415 7.51889 45.0223 7.51889C41.4032 7.51889 41.4032 7.31238 37.784 7.31238C34.1639 7.31238 34.1639 7.67307 30.5437 7.67307C26.9256 7.67307 26.9256 7.70842 23.3075 7.70842C19.6853 7.70842 19.6853 8.34776 16.0642 8.34776C12.44 8.34776 12.44 6.59384 8.81683 6.59384C5.19267 6.59384 3.45741 12.4214 0.88163 8.8315C-1.66703 5.27982 2.12081 2.80312 2.12081 -2.24646C2.12081 -7.29604 2.37187 -7.29604 2.37187 -12.3456C2.37187 -17.3952 1.26925 -17.3952 1.26925 -22.4462C1.26925 -27.4944 2.07864 -27.4944 2.07864 -32.5425C2.07864 -37.5949 1.32549 -37.5949 1.32549 -42.6474C1.32549 -47.7026 2.11881 -47.7563 1.3998 -52.7097C0.64765 -57.8824 -0.599568 -58.7706 1.94709 -62.3336Z" fill="#465B2D"/>
</g>
<defs>
<clipPath id="clip0_4555_84">
<rect width="1941" height="10" fill="white"/>
</clipPath>
</defs>
</svg>
