<svg width="158" height="37" viewBox="0 0 158 37" fill="none" xmlns="http://www.w3.org/2000/svg">
<mask id="mask0_225_1180" style="mask-type:luminance" maskUnits="userSpaceOnUse" x="0" y="0" width="158" height="37">
<path d="M158 0.331543H0V36.8439H158V0.331543Z" fill="white"/>
</mask>
<g mask="url(#mask0_225_1180)">
<mask id="mask1_225_1180" style="mask-type:luminance" maskUnits="userSpaceOnUse" x="-1" y="2" width="159" height="37">
<path d="M157.906 2.16357H-0.28125V38.6219H157.906V2.16357Z" fill="white"/>
</mask>
<g mask="url(#mask1_225_1180)">
<path d="M155.708 2.73025C155.538 2.68897 155.365 2.66451 155.191 2.65723C154.01 2.65723 152.901 3.31432 152.901 5.06793C152.237 13.686 151.497 22.3045 150.316 30.4849C151.055 30.3387 151.572 30.5579 152.089 30.7771C153.418 22.4508 156.594 9.96193 157.407 6.38255C157.555 5.87128 157.702 5.28699 157.702 4.84875C157.776 3.60673 156.964 2.87629 155.708 2.73025Z" fill="#063A41"/>
<path d="M37.6106 6.08984C36.4292 6.52809 35.3949 6.45506 34.2132 6.08984C30.3726 15.7309 25.8672 26.6136 21.8789 34.7209C23.7253 34.2826 25.498 34.4287 26.6059 34.7209C27.6399 32.1645 28.8216 29.243 29.9295 26.3215C33.844 26.1753 37.8322 26.1753 41.7467 26.3215C42.8546 29.0969 43.9624 31.9454 45.0704 34.7209C46.843 34.2826 48.6155 34.3556 49.871 34.7209C47.0645 29.3161 41.3035 15.3657 37.6106 6.08984ZM35.9119 11.0564C37.5368 15.4388 39.2356 19.8941 41.0819 24.3494C37.6845 24.4955 34.2131 24.4955 30.8156 24.3494C32.8837 19.0906 34.8779 13.978 35.9119 11.0564Z" fill="#063A41"/>
<path d="M16.3378 23.0349C20.3257 16.0962 26.9734 4.70269 28.8196 2.29199C27.1208 2.65721 25.496 2.65721 23.945 2.29199C22.5419 4.84831 17.5196 12.9556 14.3437 18.2143C11.0939 12.8825 7.25328 6.6743 4.742 2.29199C2.74773 2.73023 1.93482 2.73023 -0.0585938 2.29199C3.8559 8.2081 10.2077 19.3829 12.3496 23.0349L12.0541 38.3729C12.0541 38.3729 13.4574 38.1538 14.3437 38.1538C15.1113 38.1715 15.8766 38.2448 16.6334 38.3729L16.3378 23.0349Z" fill="#063A41"/>
<path d="M93.7403 5.72461C83.547 5.72461 78.1562 12.152 78.1562 20.4784C78.1562 29.6081 83.9911 35.086 93.7403 35.086C104.228 35.086 109.398 28.8046 109.398 20.5513C109.398 11.2755 103.268 5.72461 93.7403 5.72461ZM93.8142 33.4791C87.0194 33.4791 83.0309 28.6587 83.0309 20.4784C83.0309 11.2756 87.9794 7.5506 93.5926 7.47758H93.8881C100.166 7.47758 104.746 11.7137 104.746 20.4784C104.598 29.2432 100.019 33.4791 93.8142 33.4791Z" fill="#063A41"/>
<path d="M129.045 3.97168C118.853 3.97168 111.098 9.66861 111.098 20.3322C111.098 29.0971 116.268 36.7658 129.119 36.7658C140.05 36.7658 147.14 30.8497 147.14 20.4783C147.14 10.691 140.493 3.97168 129.045 3.97168ZM115.898 20.2592C115.898 9.08432 122.841 5.72454 129.045 5.72454C136.726 5.72454 142.339 10.3259 142.339 20.4783C142.339 31.507 135.545 35.0859 129.045 35.0859C122.176 35.086 115.898 31.0688 115.898 20.2592Z" fill="#063A41"/>
<path d="M150.169 33.9175C148.618 33.9175 147.879 35.0857 147.879 36.2546C147.879 37.7154 149.06 38.4457 150.464 38.4457C151.498 38.4457 152.679 37.7886 152.679 36.1086C152.753 34.794 151.646 33.9175 150.169 33.9175Z" fill="#063A41"/>
<path d="M76.7522 6.08984C75.1734 6.45506 73.5305 6.45506 71.9517 6.08984C72.1732 10.5452 72.321 15.0002 72.321 19.4558C66.9293 19.6019 61.5377 19.6019 56.1461 19.4558C56.1461 15.0005 56.2938 10.5455 56.5154 6.08984C54.9365 6.45506 53.2937 6.45506 51.7148 6.08984C52.158 15.6578 52.0842 25.153 51.7148 34.6475C53.2937 34.2823 54.9365 34.2823 56.5154 34.6475C56.2939 30.1922 56.1461 25.8099 56.1461 21.3545C61.5378 21.2815 66.9294 21.2815 72.321 21.3545C72.321 25.8099 72.1733 30.1922 71.9517 34.6475C73.5305 34.2823 75.1734 34.2823 76.7522 34.6475C76.3828 25.153 76.3828 15.6578 76.7522 6.08984Z" fill="#063A41"/>
</g>
</g>
</svg>
